<svg width="20" height="15" viewBox="0 0 20 15" fill="none" xmlns="http://www.w3.org/2000/svg">
<g clip-path="url(#clip0_18_13976)">
<path d="M15.3571 0C17.9213 2.30099e-07 20 2.07868 20 4.64286C20 7.20704 17.9213 9.28571 15.3571 9.28571H12.3159L17.3159 14.2857H11.2556L5.62779 8.65793C5.24 8.27014 5 7.73461 5 7.14286C5 5.95939 5.95939 5 7.14286 5H15.3571C15.5544 5 15.7143 4.84011 15.7143 4.64286C15.7143 4.44561 15.5544 4.28571 15.3571 4.28571H7.14286C5.56489 4.28571 4.28571 5.56489 4.28571 7.14286C4.28571 7.99646 4.66007 8.76239 5.25357 9.28571H5.24554L10.2455 14.2857H7.14286C3.19797 14.2857 0 11.0878 0 7.14286C0 3.19797 3.19796 0 7.14286 0H15.3571Z" fill="#3902FF"/>
<path d="M20 10V14.2857H18.3259L14.0402 10H20Z" fill="#3902FF"/>
</g>
<defs>
<clipPath id="clip0_18_13976">
<rect width="20" height="14.2857" fill="white"/>
</clipPath>
</defs>
</svg>
