<svg width="20" height="19" viewBox="0 0 20 19" fill="none" xmlns="http://www.w3.org/2000/svg">
<g clip-path="url(#clip0_23_15055)">
<path d="M1.53672 7.9686C1.72588 7.11735 2.48088 6.51172 3.35288 6.51172H5.58139L3.72093 14.8838H2.31929C1.12906 14.8838 0.24493 13.7816 0.503127 12.6198L1.53672 7.9686Z" fill="#FFC228"/>
<path d="M18.2722 3.72093H9.90051L9.61753 5.04112C9.43367 5.89884 8.67562 6.51163 7.79841 6.51163H5.58139L6.6612 1.47076C6.84497 0.612902 7.60311 0 8.48041 0H16.768C17.9525 0 18.8353 1.09206 18.5873 2.2502L18.2722 3.72093Z" fill="#FB315D"/>
<path d="M14.4013 17.134C14.2175 17.9918 13.4594 18.6047 12.582 18.6047H5.22465C4.04022 18.6047 3.15734 17.5127 3.40545 16.3545L3.72053 14.8838H14.8833L14.4013 17.134Z" fill="#07E0B0"/>
<path d="M17.966 7.90674C19.1764 7.90674 20.0645 9.04423 19.7709 10.2184L18.957 13.4742C18.7499 14.3025 18.0058 14.8835 17.152 14.8835H14.8837L15.6977 11.6277H6.51163L6.99367 9.37748C7.17749 8.51962 7.93558 7.90674 8.81288 7.90674H17.966Z" fill="#6F3BFD"/>
</g>
<defs>
<clipPath id="clip0_23_15055">
<rect width="20" height="18.6047" fill="white"/>
</clipPath>
</defs>
</svg>
