<svg width="20" height="15" viewBox="0 0 20 15" fill="none" xmlns="http://www.w3.org/2000/svg">
<g clip-path="url(#clip0_18_13991)">
<path d="M12.9091 0.181641C16.7249 0.181641 19.8182 3.27495 19.8182 7.09073V14.7271C18.2115 14.7271 16.9091 13.4247 16.9091 11.818V7.09073C16.9091 4.8816 15.1182 3.09073 12.9091 3.09073H11.0178C10.0534 3.09075 9.12833 3.47378 8.44637 4.15571L3.51705 9.08542C3.24429 9.35815 3.09094 9.72808 3.09091 10.1138V10.3635C3.09091 11.1668 3.74215 11.818 4.54546 11.818H11.0909C11.0909 13.3744 9.8687 14.6452 8.33168 14.7232L8.18182 14.7271H4.54546C2.13549 14.7271 0.181824 12.7734 0.181824 10.3635V10.1138C0.181846 8.95655 0.641558 7.84655 1.45988 7.02822L6.38957 2.0989C7.61706 0.871404 9.28182 0.181657 11.0178 0.181641H12.9091Z" fill="#FF500B"/>
<path d="M13.6364 4.54541C14.6405 4.54541 15.4545 5.35945 15.4545 6.36359V14.7272C13.8479 14.7272 12.5455 13.4248 12.5455 11.8181V7.4545H11.3295L8.95298 9.83105C8.612 10.172 8.14957 10.3636 7.66735 10.3636H4.71909C4.56684 10.3636 4.49058 10.1795 4.59826 10.0718L9.59233 5.07806C9.93328 4.73712 10.3956 4.54541 10.8779 4.54541H13.6364Z" fill="#FF500B"/>
</g>
<defs>
<clipPath id="clip0_18_13991">
<rect width="20" height="14.9091" fill="white"/>
</clipPath>
</defs>
</svg>
