<svg preserveAspectRatio="none" width="100%" height="100%" overflow="visible" style="display: block;" viewBox="0 0 24 24" fill="none" xmlns="http://www.w3.org/2000/svg">
<g id="file-pdf 1" clip-path="url(#clip0_0_16)">
<path id="Vector" d="M7.98 16.11C7.98 16.58 7.57 16.97 7.09 16.97H6.26V15.25H7.1C7.58 15.25 7.99 15.64 7.99 16.11H7.98ZM15 8H21.54C21.19 7.09 20.66 6.25 19.95 5.54L16.47 2.05C15.76 1.34 14.92 0.81 14.01 0.46V7C14.01 7.55 14.46 8 15.01 8H15ZM12.09 15.25H11.25V18.75H12.09C12.57 18.75 12.98 18.36 12.98 17.89V16.11C12.98 15.64 12.57 15.25 12.09 15.25ZM22 10.49V19C22 21.76 19.76 24 17 24H7C4.24 24 2 21.76 2 19V5C2 2.24 4.24 0 7 0H11.51C11.67 0 11.83 0.01 12 0.02V7C12 8.65 13.35 10 15 10H21.98C21.99 10.16 22 10.32 22 10.49ZM9.23 16.11C9.23 14.95 8.27 14 7.09 14H6C5.45 14 5 14.45 5 15V19.44C5 19.79 5.28 20.06 5.62 20.06C5.96 20.06 6.24 19.78 6.24 19.44V18.22H7.08C8.26 18.22 9.22 17.27 9.22 16.11H9.23ZM14.23 16.11C14.23 14.95 13.27 14 12.09 14H11C10.45 14 10 14.45 10 15V19.44C10 19.79 10.28 20 10.62 20C10.96 20 12.08 20 12.08 20C13.26 20 14.22 19.05 14.22 17.89V16.11H14.23ZM19.02 14.63C19.02 14.28 18.74 14.01 18.4 14.01H16.09C15.74 14.01 15.47 14.29 15.47 14.63V19.44C15.47 19.79 15.75 20.06 16.09 20.06C16.43 20.06 16.71 19.78 16.71 19.44V17.64H17.95C18.3 17.64 18.57 17.36 18.57 17.02C18.57 16.68 18.29 16.4 17.95 16.4H16.71V15.26H18.4C18.75 15.26 19.02 14.98 19.02 14.64V14.63Z" fill="var(--fill-0, #F91616)"/>
</g>
<defs>
<clipPath id="clip0_0_16">
<rect width="24" height="24" fill="white"/>
</clipPath>
</defs>
</svg>
